<svg width="413" height="623" viewBox="0 0 413 623" fill="none" xmlns="http://www.w3.org/2000/svg">
  <path d="M206.5 0C246.168 0 280.611 25.3091 297.902 62.4326C279.303 65.3531 265.011 82.7999 265.011 103.89C265.011 127.025 282.21 145.78 303.426 145.78C304.488 145.78 305.54 145.73 306.58 145.638C306.553 145.759 306.525 145.879 306.498 146H267.117C261.176 146 256.39 149.573 256.39 153.985V160.888H235.103C224.732 160.888 198.154 151.414 191.373 156.476C184.597 161.533 252.654 259.103 252.758 259.252L249.109 306.945H197.474C191.983 306.945 187.535 310.738 187.535 315.398C187.535 320.032 191.982 323.852 197.474 323.853H232.932C225.527 397.417 220.483 443.778 191.858 484.259H359.201L368.541 494.826H189.846C186.814 494.853 178.217 496.1 175.856 502.088C173.794 506.83 181.621 510.65 184.876 510.731H382.6L385.785 514.335H187.733L170.39 577.55H413V581.315H168.203C168.203 581.315 158.587 585.977 155.332 590.989C152.102 596.029 152.052 606 152.052 606H413V623H0V545.125L68.833 467.25L118 272.562H68.833V194.688H129.541C113.192 174.021 103.25 146.73 103.25 116.812C103.25 52.2989 149.477 4.66551e-06 206.5 0Z" fill="white"/>
</svg>
